<svg width="99" height="130" viewBox="0 0 99 130" fill="none" xmlns="http://www.w3.org/2000/svg">
<g clip-path="url(#clip0)">
<path d="M98.893 114.08C98.893 118.375 97.1347 120.871 93.6956 122.199C80.3295 127.349 64.5022 130 49.4503 130C34.3908 130 18.5635 127.346 5.19989 122.199C1.76081 120.871 0 118.375 0 114.08V0H98.893V114.08Z" fill="#005DAA"/>
<path d="M26.5221 69.5221C12.8283 60.9731 8.31123 57.1889 7.92105 51.5813C7.85602 50.4458 8.11614 48.5224 8.59386 47.1518L7.30327 46.2964C6.23048 48.0406 5.64729 50.0416 5.61499 52.089C5.61499 55.3305 6.64797 57.7817 7.92105 59.7401C9.84444 62.7014 11.8679 64.5648 16.8552 68.3065C22.2277 72.3359 25.8943 77.0405 28.0053 81.9678H28.7682V76.3777C36.024 80.4996 42.427 84.3714 45.5759 91.2996H46.3363C45.1032 84.1213 41.0413 78.5863 26.5221 69.5221V69.5221ZM89.5962 91.3096H88.6608C88.6608 86.2023 83.9761 84.8041 79.0714 84.8041H63.7343C64.2295 87.3253 64.4571 90.2742 64.0795 93.0604H63.3141C61.8959 81.5751 55.408 75.8925 46.3338 69.7972V75.0296H45.5709C43.1573 69.6321 37.8624 64.5748 32.8501 60.9831L28.7607 58.0743V63.7044H27.9978C25.8718 58.1168 22.0126 53.9474 16.5075 48.9776C10.5573 43.6251 8.16367 40.4211 6.76802 36.7369C5.92263 34.5059 5.68752 32.7026 5.65501 30.254C5.60248 25.8744 7.82101 21.9176 10.5773 20.4419V22.5629C9.21165 24.3712 8.50382 26.6698 8.49882 28.9984C8.49428 31.2862 9.03532 33.5421 10.077 35.5789C13.4261 41.9519 24.7063 49.7755 31.8646 54.5852C54.1374 69.5221 58.5844 72.1283 62.2811 80.0544C62.6938 80.9373 63.104 82.1229 63.4467 83.506C66.6631 83.0083 78.336 81.2275 80.4845 80.8873C80.9022 80.8198 81.7601 80.7172 82.2053 80.6872C84.2187 79.4166 85.7845 77.7959 87.1576 75.775L78.6287 75.1122C78.186 76.0901 77.7533 76.9155 77.3706 77.5733H76.6703C76.9054 76.7079 77.108 75.8525 77.2855 75.0096L75.0995 74.8545V74.3843L77.4631 74.0917C77.9133 71.6781 78.1309 69.392 78.1734 67.2585L67.416 66.6458C67.3631 67.6821 67.3548 68.7202 67.391 69.7572H66.7057C66.4706 68.6817 66.2905 67.6162 66.1554 66.5782L63.7993 66.4382V65.7228L66.0404 65.6003C65.76 63.0149 65.6856 60.4113 65.8178 57.8142L59.5324 57.5315C59.825 58.0868 60.1326 58.6396 60.3477 59.2523C61.7084 63.0466 61.3832 67.4886 60.938 69.5371H60.1751C60.0626 67.171 59.2697 64.2672 58.5119 62.5013C56.7736 58.4019 52.8743 54.7753 46.3313 50.5733V55.8108H45.5684C43.3949 48.9326 37.9774 45.1033 29.9262 40.9689C23.2831 37.5598 21.2197 33.4504 21.5949 27.0925L23.8409 28.4231C24.4137 34.3659 28.9808 37.8024 33.7655 37.7674C36.5818 37.7424 39.2205 37.3672 41.7667 36.862C45.4484 36.1142 48.8549 35.4864 51.6987 36.4893V32.9802H49.4627C48.6623 33.668 47.0416 34.4659 44.658 34.5084C42.0393 34.5534 37.082 33.0452 37.082 27.5052C37.082 22.693 41.1514 21.9226 44.4654 21.9226C46.2462 21.9226 49.1976 21.8601 50.1981 21.8076C50.9359 21.7575 51.4911 21.6475 51.8538 21.2873C52.229 20.9196 52.3415 20.5395 52.4266 20.0467C52.5316 19.449 52.5316 18.8412 52.5316 17.8082V14.2916H37.167V20.3819L31.3519 18.1684V16.7102H34.1331V14.2916H23.7709V9.23926H20.2392C18.3534 9.23926 16.1749 10.5649 16.0173 13.1286C15.8747 15.5872 16.9802 17.6606 19.5139 17.6606H19.9666V20.6045H19.5139C15.0744 20.6045 11.7328 17.273 11.7328 12.8509C11.7328 8.23879 15.6571 4.72717 20.4068 4.72717H27.9003V9.78201H57.0512V17.253C57.0512 18.5135 56.9787 20.2018 56.8586 21.2673C56.7686 22.0477 56.496 23.4458 55.0253 24.5713C54.1324 25.2466 52.7917 25.5193 50.6207 25.5293C48.8677 25.5185 47.1153 25.4568 45.3658 25.3442C42.0443 25.1316 41.0989 26.4172 40.9638 27.6077C40.9363 27.8578 40.9363 28.1005 40.9688 28.3331C42.5245 27.1325 44.7255 26.2796 47.2217 27.07C51.6187 28.4531 52.8768 28.5732 55.1678 26.7748L55.4004 27.2876C55.1503 27.6703 54.7126 28.2205 54.0698 28.7082H56.1933V40.2186L62.8064 36.2517H81.3749L90.5066 41.0264C91.6472 41.6267 92.0949 42.352 92.27 43.415C92.4225 44.3029 92.1874 45.4285 91.7547 46.1488C91.4821 46.599 89.3486 50.0931 88.2256 51.959C91.6171 55.6418 93.5023 60.4637 93.508 65.4702C93.508 70.2924 91.7247 76.5103 85.9295 81.1324C88.4807 81.9678 90.114 83.3585 91.3971 85.1868L89.5962 91.3096ZM48.1996 29.3285C45.5909 28.7558 44.1353 29.0784 42.6371 30.5066C43.3724 30.8567 44.2903 31.0468 45.3033 30.9793C46.7715 30.8742 47.6769 29.9988 48.1996 29.3285ZM46.6964 45.9137L54.0448 41.5092C52.5137 40.7392 50.8263 40.331 49.1125 40.3161C46.5789 40.2711 42.3044 41.4316 40.241 41.7543C41.1639 42.3821 44.4404 44.478 46.6964 45.9137V45.9137ZM79.4941 46.3814L80.512 44.9457L78.9363 42.8473L79.1989 42.3796L83.6285 44.7682L82.6605 47.6995C83.3784 48.0447 84.0362 48.4749 84.9091 49.0551L87.7754 44.348L80.3545 40.4712H63.9644L50.6583 48.4749C53.1544 50.2107 55.4605 52.0865 57.0937 53.9774C60.6554 48.7875 66.9208 45.4835 73.1261 45.4835C75.1546 45.486 77.5157 45.7036 79.4941 46.3814V46.3814ZM78.1609 64.96C78.0821 62.735 77.8127 60.5209 77.3556 58.3419L68.6691 57.9492C68.1001 60.4444 67.7098 62.977 67.501 65.5277L78.1609 64.96ZM81.0823 58.5145C81.3599 60.758 81.3949 62.8565 81.2474 64.7949L89.8538 64.3447C89.6379 62.4325 89.0939 60.5719 88.2456 58.8447L81.0823 58.5145ZM76.7003 55.6982C75.7999 52.5893 74.7269 50.4308 74.1616 49.4153C73.7985 49.394 73.4348 49.384 73.0711 49.3853C72.4633 49.3853 71.8555 49.4628 71.2678 49.5254C70.3999 51.6989 69.692 53.8924 69.1168 56.1184L76.7003 55.6982ZM79.0864 50.4808C79.7292 52.2091 80.2119 53.8749 80.5646 55.4831L85.822 55.1955C83.9989 53.0937 81.6853 51.4742 79.0864 50.4808V50.4808ZM88.7633 72.6785C89.4078 71.1688 89.7885 69.5598 89.8889 67.9213L80.9447 67.4136C80.5873 69.6286 79.9876 71.7976 79.1564 73.8816L88.7633 72.6785ZM66.7057 50.8335C63.7118 52.1741 61.6458 53.9974 59.8 56.6136L65.9228 56.2935C66.0581 54.4577 66.3197 52.6333 66.7057 50.8335" fill="#FFD200"/>
<path d="M55.3479 104.521C57.844 104.116 60.2251 102.175 60.2251 99.2408C60.2251 96.5971 59.0996 93.6932 51.316 93.6932H38.1749V93.9058C38.5726 94.0284 39.2054 94.351 39.6181 94.7512C40.5085 95.6291 40.8062 96.9272 40.8412 98.658V118.325H51.7287C57.7165 118.325 62.051 116.046 62.051 110.806C62.0535 106.552 58.7394 104.743 55.3479 104.521V104.521ZM49.7453 96.0368C52.5316 96.0368 54.4199 96.6446 54.4199 99.6159C54.4199 102.787 51.8913 103.66 49.0024 103.66H46.5138V96.0368H49.7453ZM50.0279 115.998H46.5138V105.939H49.8678C54.475 105.939 56.2408 107.317 56.2408 110.766C56.2383 114.495 53.9297 115.998 50.0279 115.998ZM28.4855 118.32H35.5812L26.5221 106.742C30.1512 105.769 32.87 103.78 32.87 100.171C32.87 95.9368 30.3313 93.6907 23.7033 93.6907H9.99194V93.9033C10.4997 94.0784 11.0624 94.4061 11.4351 94.7687C12.3931 95.7167 12.6807 97.1623 12.6807 99.1132V118.32H18.3708V107.407H20.4468L28.4855 118.32ZM18.3733 96.0368H22.2026C25.3965 96.0368 27.0623 96.9722 27.0623 100.359C27.0623 103.385 24.8863 105.181 21.3872 105.181H18.3733V96.0368ZM85.0641 97.0698C86.5823 97.9252 87.0475 99.0582 87.06 99.0682C87.13 99.1507 87.2951 99.1232 87.2951 99.1232L88.5332 94.9088C88.5332 94.9088 86.3096 93.3105 81.0172 93.3105C73.0085 93.3105 67.0132 97.3449 67.0132 106.174C67.0132 116.121 74.154 118.705 80.4544 118.705C86.3096 118.705 88.6157 116.839 88.6157 116.839V113.953C88.6157 113.953 86.5423 115.883 82.1027 115.883C78.4435 115.883 73.056 114.208 72.9485 106.034C72.8384 98.4779 76.1325 96.0193 80.5395 96.0193C83.0006 96.0193 84.2287 96.5971 85.0641 97.0698" fill="white"/>
</g>
<defs>
<clipPath id="clip0">
<rect width="98.8931" height="130" fill="white"/>
</clipPath>
</defs>
</svg>
