<svg width="397" height="100" viewBox="0 0 397 100" fill="none" xmlns="http://www.w3.org/2000/svg">
<path d="M217.721 36.5667V30.2982H195.353V62.5567H217.721V56.0127H204.408V48.8635H215.481V42.5993H204.408V36.5667H217.721ZM257.164 56.1917H243.189V30.2968H234.022V62.5567H257.164V56.1902V56.1917ZM331.001 42.5908C324.814 41.1988 322.648 41.0354 322.648 38.5752C322.648 36.2911 325.714 35.5809 327.478 35.5809C330.329 35.5809 333.697 36.2456 337.13 38.0056L339.626 32.0681C336.107 30.1505 331.594 29.3536 327.253 29.3536C318.722 29.3536 312.998 32.8138 312.758 39.5624C312.513 45.7158 317.516 48.0184 322.116 48.9672C326.549 49.8834 331.046 50.6675 331.137 53.301C331.219 55.73 329.035 56.7698 324.914 56.7698C321.096 56.7698 317.547 55.5439 313.921 54.024L311.802 60.4772C315.971 62.2499 320.202 63.2272 324.564 63.2272C330.624 63.2272 335.047 62.2812 338.303 59.2243C340.559 57.1263 341.299 54.5937 341.299 52.1746C341.303 47.0752 338.124 44.2016 331.001 42.5908V42.5908ZM182.347 36.6647V30.2982H154.212V36.6661H163.718V62.5596H172.83V36.6647H182.347ZM288.441 30.2968V50.7939C288.441 52.399 288.441 52.8437 288.344 53.4687C288.05 55.4218 286.157 56.5553 283.138 56.5951C280.902 56.5596 279.265 55.899 278.502 54.73C278.118 54.1292 277.931 53.0496 277.931 51.3266V30.2968H268.424V52.5283C268.424 55.6093 268.836 56.9999 270.226 58.7584C272.522 61.6277 276.996 63.1363 283.157 63.1363H283.493C291.742 63.1363 296.003 59.9189 297.233 56.909C297.849 55.4502 297.894 54.7598 297.894 51.8138V30.2954H288.441V30.2968ZM158.508 21.463L105.188 32.078V35.7968L105.358 35.7542C140.581 27.1902 158.506 22.0397 158.65 22.0027C158.849 21.9516 158.92 21.7968 158.891 21.6661C158.861 21.5283 158.718 21.4147 158.505 21.4615" fill="#49266C"/>
<path d="M113.335 23.7656V23.7613V23.7656ZM115.158 20.4488C112.565 20.5966 107.767 24.4346 105.132 26.7145C94.6422 35.7912 86.8425 44.1321 81.172 52.8693C69.3496 59.2017 54.2743 65.713 39.3084 70.7954L38.9476 70.9176L36.0669 78.6733L37.7118 78.0383C47.2331 74.4105 63.1237 67.5966 77.5271 60.0213C76.7175 62.1846 76.3084 64.1733 76.3084 65.9872C76.3084 67.3395 76.5356 68.5966 76.9859 69.7386C77.8922 72.0213 79.6777 73.75 82.1521 74.7329C85.8396 76.2031 90.868 76.2301 96.6067 74.4929C111.266 70.0497 128.656 56.4062 132.443 53.6932L132.588 53.5909C132.737 53.4829 132.747 53.321 132.685 53.2116C132.602 53.0866 132.429 53.0525 132.284 53.1406L132.098 53.2542C128.036 55.6917 108.291 67.4133 95.4589 70.8551C88.922 72.6093 83.9405 71.6505 82.0626 69.0227C81.4092 68.125 81.0967 66.99 81.0967 65.6647C81.0967 63.0781 82.3126 59.7841 84.6578 56.125C86.8169 54.8963 88.8325 53.696 90.6493 52.5539C103.169 45.5184 117.592 31.838 118.209 23.4872C118.212 23.4304 118.212 23.3636 118.212 23.3025C118.212 22.5809 117.899 21.8395 117.352 21.2926C117.071 20.9998 116.729 20.7724 116.35 20.6266C115.971 20.4808 115.564 20.4201 115.159 20.4488H115.158ZM113.761 24.4289C114.584 23.8963 114.82 24.2301 114.578 24.8295C114.188 25.7883 112.379 31.5568 98.9575 42.5753C95.4561 45.4446 92.9646 47.0554 87.9206 50.0412C96.1805 38.4673 108.239 28.0156 113.761 24.4289V24.4289Z" fill="#6EBE44"/>
<path d="M105.014 32.1136L48.9201 44.1719L46.7554 50.0057L105.189 35.7955L106.997 34.7756L106.946 32.1193L105.014 32.1136" fill="#49266C"/>
</svg>
