<svg width="39" height="39" viewBox="0 0 39 39" fill="none" xmlns="http://www.w3.org/2000/svg">
<rect x="2.00293" y="2.00342" width="36.2069" height="36.2069" rx="3" fill="#929292"/>
<rect width="36.2069" height="36.2069" rx="3" fill="#F29E9F"/>
<path d="M12.96 9.56C13.52 9.18 14.25 8.83 15.15 8.51C16.07 8.17 17.03 8 18.03 8C19.61 8 20.91 8.41 21.93 9.23C22.97 10.05 23.49 11.23 23.49 12.77C23.49 13.75 23.21 14.66 22.65 15.5C22.11 16.32 21.14 16.95 19.74 17.39V17.51C21.52 17.81 22.73 18.42 23.37 19.34C24.01 20.26 24.33 21.29 24.33 22.43C24.33 24.17 23.76 25.56 22.62 26.6C21.5 27.64 19.96 28.16 18 28.16C16.16 28.16 14.76 27.75 13.8 26.93C12.84 26.11 12.24 25.11 12 23.93L13.71 23.33C13.99 24.13 14.45 24.82 15.09 25.4C15.73 25.98 16.68 26.27 17.94 26.27C19.54 26.27 20.61 25.86 21.15 25.04C21.71 24.22 21.99 23.31 21.99 22.31C21.99 21.13 21.57 20.21 20.73 19.55C19.89 18.89 18.42 18.53 16.32 18.47V16.85C18.2 16.77 19.48 16.33 20.16 15.53C20.84 14.71 21.18 13.88 21.18 13.04C21.18 12.06 20.86 11.29 20.22 10.73C19.6 10.17 18.73 9.89 17.61 9.89C16.63 9.89 15.67 10.14 14.73 10.64L14.19 13.07L12.45 12.86L12.96 9.56Z" fill="#FAFCFD"/>
</svg>
