<svg width="163" height="43" viewBox="0 0 163 43" fill="none" xmlns="http://www.w3.org/2000/svg">
<rect x="2.9646" y="2.96457" width="159.346" height="40.0217" rx="3" fill="#929292"/>
<rect width="159.346" height="40.0217" rx="3" fill="#F29E9F"/>
<path d="M36.4094 28.1634H29.9503V25.6991H31.6624L30.8064 23.3905H24.5029L23.595 25.6991H25.4887V28.1634H19.1074V25.6991H20.6638L25.7481 13.7667H23.2838V11.3024H28.7052L34.7752 25.6991H36.4094V28.1634ZM30.0282 21.2893L27.8233 15.4269H27.6676L25.333 21.2893H30.0282Z" fill="#FAFCFD"/>
<path d="M50.0543 22.0416C50.0543 23.7018 49.6133 25.1803 48.7313 26.4773C47.8666 27.7743 46.5264 28.4228 44.7106 28.4228C43.0332 28.4228 41.814 27.8176 41.0531 26.607V31.5097H43.3617V33.6887H36.5395V31.5097H38.2775V18.6435H36.4617V16.5164H41.0531V18.825C41.3816 18.1333 41.8572 17.5367 42.4798 17.0352C43.1196 16.5337 43.9756 16.2829 45.0478 16.2829C46.5351 16.2829 47.7369 16.7931 48.6535 17.8134C49.5873 18.8164 50.0543 20.2258 50.0543 22.0416ZM47.1749 22.3269C47.1749 21.0818 46.8896 20.1393 46.3189 19.4995C45.7482 18.8423 45.0219 18.5138 44.1399 18.5138C43.2061 18.5138 42.4711 18.8683 41.935 19.5773C41.3989 20.2863 41.1136 21.1164 41.079 22.0675L41.0531 22.9754C41.0531 23.9439 41.3298 24.7221 41.8832 25.31C42.4538 25.898 43.1802 26.192 44.0621 26.192C45.0478 26.192 45.8087 25.8461 46.3448 25.1544C46.8982 24.4627 47.1749 23.5202 47.1749 22.3269Z" fill="#FAFCFD"/>
<path d="M64.6708 22.0416C64.6708 23.7018 64.2299 25.1803 63.3479 26.4773C62.4832 27.7743 61.143 28.4228 59.3272 28.4228C57.6497 28.4228 56.4306 27.8176 55.6697 26.607V31.5097H57.9783V33.6887H51.1561V31.5097H52.8941V18.6435H51.0783V16.5164H55.6697V18.825C55.9982 18.1333 56.4738 17.5367 57.0964 17.0352C57.7362 16.5337 58.5922 16.2829 59.6644 16.2829C61.1516 16.2829 62.3535 16.7931 63.2701 17.8134C64.2039 18.8164 64.6708 20.2258 64.6708 22.0416ZM61.7915 22.3269C61.7915 21.0818 61.5062 20.1393 60.9355 19.4995C60.3648 18.8423 59.6385 18.5138 58.7565 18.5138C57.8227 18.5138 57.0877 18.8683 56.5516 19.5773C56.0155 20.2863 55.7302 21.1164 55.6956 22.0675L55.6697 22.9754C55.6697 23.9439 55.9464 24.7221 56.4997 25.31C57.0704 25.898 57.7967 26.192 58.6787 26.192C59.6644 26.192 60.4253 25.8461 60.9614 25.1544C61.5148 24.4627 61.7915 23.5202 61.7915 22.3269Z" fill="#FAFCFD"/>
<path d="M72.128 28.1634H65.9024V26.0364H67.6404V12.4438H65.7986V10.3167H70.39V26.0364H72.128V28.1634Z" fill="#FAFCFD"/>
<path d="M85.6336 18.6435H84.4144L80.5234 28.1634L79.2264 31.5097H80.9385V33.6887H74.7129V31.5097H76.6843L77.8257 28.2672L73.7012 18.6435H72.4301V16.5164H78.1629V18.6435H76.6843L79.3821 24.9469H79.5377L81.7167 18.6435H80.3937V16.5164H85.6336V18.6435Z" fill="#FAFCFD"/>
<path d="M105.378 28.1634H99.1528V26.0364H100.865V21.4709C100.865 20.3641 100.666 19.5859 100.268 19.1363C99.8705 18.6694 99.3171 18.4359 98.6081 18.4359C97.7261 18.4359 97.0257 18.7213 96.5069 19.292C96.0054 19.8626 95.746 20.563 95.7287 21.3931V26.0364H97.4667V28.1634H91.2152V26.0364H92.9532V18.6694H91.1374V16.5164H95.7287V18.41C96.5415 16.9919 97.8299 16.2829 99.5938 16.2829C100.701 16.2829 101.652 16.6201 102.447 17.2946C103.243 17.969 103.64 19.0239 103.64 20.4593V26.0364H105.378V28.1634Z" fill="#FAFCFD"/>
<path d="M118.451 22.3529C118.451 24.1687 117.871 25.6386 116.713 26.7627C115.571 27.8695 114.084 28.4228 112.251 28.4228C110.47 28.4228 109.034 27.8867 107.945 26.8146C106.873 25.7424 106.337 24.2897 106.337 22.4566C106.337 20.7619 106.847 19.3092 107.867 18.0987C108.887 16.8709 110.401 16.257 112.407 16.257C114.43 16.257 115.943 16.8622 116.946 18.0728C117.949 19.2833 118.451 20.71 118.451 22.3529ZM115.571 22.2751C115.571 21.0299 115.269 20.0788 114.663 19.4217C114.075 18.7645 113.306 18.4359 112.355 18.4359C111.369 18.4359 110.599 18.7904 110.046 19.4995C109.493 20.1912 109.216 21.125 109.216 22.301C109.216 23.4078 109.475 24.3416 109.994 25.1025C110.53 25.8634 111.317 26.2439 112.355 26.2439C113.358 26.2439 114.145 25.8807 114.715 25.1544C115.286 24.4108 115.571 23.451 115.571 22.2751Z" fill="#FAFCFD"/>
<path d="M138.394 18.6435H137.226L133.958 28.1634H131.883L128.666 20.4852H128.536L125.501 28.1634H123.53L120.184 18.6435H119.042V16.5164H124.957V18.6435H123.141L124.931 24.2465H125.086L128.069 16.5164H129.781L133.128 24.1687H133.283L134.684 18.6435H132.946V16.5164H138.394V18.6435Z" fill="#FAFCFD"/>
</svg>
