<svg width="39" height="39" viewBox="0 0 39 39" fill="none" xmlns="http://www.w3.org/2000/svg">
<rect x="2.00293" y="2.02196" width="36.2069" height="36.5413" rx="3" fill="#929292"/>
<rect width="36.2069" height="36.5413" rx="3" fill="#FED19C"/>
<path d="M17.5 24.2216L14 20.6893L7 27.754H29.5L22 20.6893L18.5 24.2216H17.5Z" fill="white" stroke="white"/>
<path d="M29.6446 9.9315L18.1362 21.0622C18.0598 21.1361 17.939 21.1373 17.8611 21.065L5.87325 9.9343C5.74004 9.81062 5.82756 9.58774 6.00934 9.58774H29.5055C29.6853 9.58774 29.7738 9.8065 29.6446 9.9315Z" fill="white" stroke="white"/>
<path d="M12 18.9736L5.5 12.8173V25.4327L12 18.9736Z" fill="white" stroke="white"/>
<path d="M24 19.1755L30.5 12.8173V25.4327L24 19.1755Z" fill="white" stroke="white"/>
</svg>
