<svg width="270" height="82" viewBox="0 0 270 82" fill="none" xmlns="http://www.w3.org/2000/svg">
<rect x="4.28149" y="4.28247" width="77.3965" height="77.3956" rx="10" fill="#929292"/>
<rect width="77.3965" height="77.3956" rx="10" fill="#F29E9F"/>
<path d="M52.2918 35.1127L48.7405 35.4678L47.8527 30.141H37.7318V40.4395H50.6493V43.902H37.7318V51.981H42.7035V55.4878H30.1854V51.981H33.6923V30.141H30.1854V26.6342H51.3596L52.2918 35.1127Z" fill="#FAFCFD"/>
<rect x="98.3888" y="4.28247" width="77.3965" height="77.3956" rx="10" fill="#929292"/>
<rect x="94.1073" width="77.3965" height="77.3956" rx="10" fill="#F29E9F"/>
<path d="M148.219 55.4878H137.61V51.981H141.028L139.252 47.1868H127.622L125.713 51.981H129.486V55.4878H118.966V51.981H121.629L130.729 30.141H126.29V26.6342H134.991L145.378 51.981H148.219V55.4878ZM138.098 44.1683L133.703 32.4493H133.437L128.82 44.1683H138.098Z" fill="#FAFCFD"/>
<rect x="192.496" y="4.28247" width="77.3965" height="77.3956" rx="10" fill="#929292"/>
<rect x="188.215" width="77.3965" height="77.3956" rx="10" fill="#F29E9F"/>
<path d="M243.88 40.6171C243.88 44.6714 242.607 48.1042 240.062 50.9156L243.303 54.2005L240.773 56.7307L237.266 53.2239C234.958 54.7332 232.294 55.4878 229.276 55.4878C224.807 55.4878 221.285 54.0229 218.711 51.0932C216.136 48.1634 214.849 44.6714 214.849 40.6171C214.849 36.474 216.18 32.9672 218.844 30.0966C221.507 27.1964 225.014 25.7463 229.364 25.7463C233.774 25.7463 237.295 27.1964 239.929 30.0966C242.563 32.9967 243.88 36.5036 243.88 40.6171ZM239.53 40.7059C239.53 37.3618 238.612 34.6392 236.778 32.538C234.972 30.4073 232.501 29.3419 229.364 29.3419C226.109 29.3419 223.594 30.4369 221.818 32.6268C220.072 34.7872 219.199 37.4358 219.199 40.5727C219.199 43.6504 220.057 46.3138 221.774 48.5629C223.52 50.7824 226.079 51.8922 229.453 51.8922C231.466 51.8922 233.197 51.4187 234.647 50.4717L229.586 45.3224L232.117 42.7922L237.31 48.0746C238.79 46.1511 239.53 43.6948 239.53 40.7059Z" fill="#FAFCFD"/>
</svg>
