<svg width="361" height="50" viewBox="0 0 361 50" fill="none" xmlns="http://www.w3.org/2000/svg">
<rect width="360.345" height="50" rx="5" fill="#A8A8A8"/>
<rect x="8.62073" y="8.6207" width="298.276" height="32.7586" rx="3" fill="#FAFCFD"/>
<rect x="317.52" y="8.89999" width="36.2069" height="36.2069" rx="3" fill="#929292"/>
<rect x="315.517" y="6.89655" width="36.2069" height="36.2069" rx="3" fill="#FAFCFD"/>
<circle cx="331.035" cy="22.4138" r="10.3448" fill="#C4C4C4"/>
<path d="M337.931 22.4138C337.931 26.2227 334.843 29.3103 331.034 29.3103C327.226 29.3103 324.138 26.2227 324.138 22.4138C324.138 18.6049 327.226 15.5172 331.034 15.5172C334.843 15.5172 337.931 18.6049 337.931 22.4138Z" fill="#FAFCFD"/>
<rect x="336.968" y="26.1113" width="13.5382" height="3.15528" transform="rotate(44.9339 336.968 26.1113)" fill="#C4C4C4"/>
<path d="M22.932 22.018C25.128 22.018 26.226 23.17 26.226 25.474V30.37C26.226 30.586 26.16 30.76 26.028 30.892C25.908 31.024 25.74 31.09 25.524 31.09C25.308 31.09 25.134 31.024 25.002 30.892C24.87 30.76 24.804 30.586 24.804 30.37V29.506C24.576 30.022 24.228 30.424 23.76 30.712C23.292 30.988 22.752 31.126 22.14 31.126C21.576 31.126 21.054 31.012 20.574 30.784C20.106 30.556 19.734 30.238 19.458 29.83C19.182 29.422 19.044 28.972 19.044 28.48C19.044 27.82 19.212 27.31 19.548 26.95C19.884 26.578 20.436 26.314 21.204 26.158C21.972 25.99 23.04 25.906 24.408 25.906H24.804V25.312C24.804 24.592 24.654 24.064 24.354 23.728C24.066 23.392 23.592 23.224 22.932 23.224C22.116 23.224 21.288 23.446 20.448 23.89C20.124 24.094 19.896 24.196 19.764 24.196C19.62 24.196 19.5 24.142 19.404 24.034C19.308 23.926 19.26 23.788 19.26 23.62C19.26 23.452 19.308 23.308 19.404 23.188C19.512 23.056 19.68 22.924 19.908 22.792C20.328 22.552 20.802 22.366 21.33 22.234C21.87 22.09 22.404 22.018 22.932 22.018ZM22.338 29.974C23.058 29.974 23.646 29.734 24.102 29.254C24.57 28.762 24.804 28.132 24.804 27.364V26.842H24.48C23.424 26.842 22.62 26.89 22.068 26.986C21.516 27.07 21.12 27.22 20.88 27.436C20.652 27.64 20.538 27.946 20.538 28.354C20.538 28.822 20.706 29.212 21.042 29.524C21.39 29.824 21.822 29.974 22.338 29.974ZM37.9455 22.018C38.7135 22.018 39.3915 22.21 39.9795 22.594C40.5675 22.978 41.0235 23.518 41.3475 24.214C41.6715 24.898 41.8335 25.696 41.8335 26.608C41.8335 27.52 41.6715 28.318 41.3475 29.002C41.0235 29.674 40.5675 30.196 39.9795 30.568C39.4035 30.94 38.7255 31.126 37.9455 31.126C37.2615 31.126 36.6615 30.976 36.1455 30.676C35.6415 30.376 35.2575 29.95 34.9935 29.398V33.628C34.9935 33.844 34.9275 34.012 34.7955 34.132C34.6755 34.264 34.5015 34.33 34.2735 34.33C34.0455 34.33 33.8655 34.264 33.7335 34.132C33.6015 34 33.5355 33.832 33.5355 33.628V22.774C33.5355 22.558 33.6015 22.384 33.7335 22.252C33.8655 22.12 34.0455 22.054 34.2735 22.054C34.5015 22.054 34.6755 22.12 34.7955 22.252C34.9275 22.384 34.9935 22.558 34.9935 22.774V23.746C35.2575 23.194 35.6415 22.768 36.1455 22.468C36.6615 22.168 37.2615 22.018 37.9455 22.018ZM37.6575 29.92C38.5095 29.92 39.1695 29.632 39.6375 29.056C40.1055 28.48 40.3395 27.664 40.3395 26.608C40.3395 25.552 40.1055 24.73 39.6375 24.142C39.1695 23.542 38.5095 23.242 37.6575 23.242C36.8055 23.242 36.1455 23.53 35.6775 24.106C35.2215 24.682 34.9935 25.504 34.9935 26.572C34.9935 27.64 35.2215 28.468 35.6775 29.056C36.1455 29.632 36.8055 29.92 37.6575 29.92ZM44.7501 31.09C44.5341 31.09 44.3541 31.03 44.2101 30.91C44.0781 30.778 44.0121 30.598 44.0121 30.37V18.94C44.0121 18.712 44.0781 18.538 44.2101 18.418C44.3541 18.286 44.5341 18.22 44.7501 18.22C44.9541 18.22 45.1221 18.286 45.2541 18.418C45.3981 18.538 45.4701 18.712 45.4701 18.94V30.37C45.4701 30.598 45.3981 30.778 45.2541 30.91C45.1221 31.03 44.9541 31.09 44.7501 31.09ZM51.7777 22.018C53.9737 22.018 55.0717 23.17 55.0717 25.474V30.37C55.0717 30.586 55.0057 30.76 54.8737 30.892C54.7537 31.024 54.5857 31.09 54.3697 31.09C54.1537 31.09 53.9797 31.024 53.8477 30.892C53.7157 30.76 53.6497 30.586 53.6497 30.37V29.506C53.4217 30.022 53.0737 30.424 52.6057 30.712C52.1377 30.988 51.5977 31.126 50.9857 31.126C50.4217 31.126 49.8997 31.012 49.4197 30.784C48.9517 30.556 48.5797 30.238 48.3037 29.83C48.0277 29.422 47.8897 28.972 47.8897 28.48C47.8897 27.82 48.0577 27.31 48.3937 26.95C48.7297 26.578 49.2817 26.314 50.0497 26.158C50.8177 25.99 51.8857 25.906 53.2537 25.906H53.6497V25.312C53.6497 24.592 53.4997 24.064 53.1997 23.728C52.9117 23.392 52.4377 23.224 51.7777 23.224C50.9617 23.224 50.1337 23.446 49.2937 23.89C48.9697 24.094 48.7417 24.196 48.6097 24.196C48.4657 24.196 48.3457 24.142 48.2497 24.034C48.1537 23.926 48.1057 23.788 48.1057 23.62C48.1057 23.452 48.1537 23.308 48.2497 23.188C48.3577 23.056 48.5257 22.924 48.7537 22.792C49.1737 22.552 49.6477 22.366 50.1757 22.234C50.7157 22.09 51.2497 22.018 51.7777 22.018ZM51.1837 29.974C51.9037 29.974 52.4917 29.734 52.9477 29.254C53.4157 28.762 53.6497 28.132 53.6497 27.364V26.842H53.3257C52.2697 26.842 51.4657 26.89 50.9137 26.986C50.3617 27.07 49.9657 27.22 49.7257 27.436C49.4977 27.64 49.3837 27.946 49.3837 28.354C49.3837 28.822 49.5517 29.212 49.8877 29.524C50.2357 29.824 50.6677 29.974 51.1837 29.974ZM61.3586 31.126C60.5426 31.126 59.8166 30.94 59.1806 30.568C58.5566 30.196 58.0706 29.668 57.7226 28.984C57.3866 28.3 57.2186 27.508 57.2186 26.608C57.2186 25.708 57.3926 24.91 57.7406 24.214C58.1006 23.518 58.5986 22.978 59.2346 22.594C59.8706 22.21 60.6026 22.018 61.4306 22.018C61.8866 22.018 62.3366 22.084 62.7806 22.216C63.2366 22.336 63.6326 22.516 63.9686 22.756C64.1846 22.9 64.3346 23.044 64.4186 23.188C64.5146 23.32 64.5626 23.47 64.5626 23.638C64.5626 23.806 64.5146 23.944 64.4186 24.052C64.3346 24.16 64.2206 24.214 64.0766 24.214C63.9926 24.214 63.9026 24.19 63.8066 24.142C63.7106 24.094 63.6266 24.046 63.5546 23.998C63.4946 23.95 63.4526 23.92 63.4286 23.908C63.1166 23.704 62.8166 23.542 62.5286 23.422C62.2526 23.302 61.9106 23.242 61.5026 23.242C60.6266 23.242 59.9426 23.542 59.4506 24.142C58.9706 24.73 58.7306 25.552 58.7306 26.608C58.7306 27.664 58.9706 28.48 59.4506 29.056C59.9426 29.632 60.6266 29.92 61.5026 29.92C61.9106 29.92 62.2586 29.86 62.5466 29.74C62.8466 29.62 63.1466 29.458 63.4466 29.254C63.5786 29.17 63.7046 29.098 63.8246 29.038C63.9446 28.978 64.0466 28.948 64.1306 28.948C64.2626 28.948 64.3706 29.002 64.4546 29.11C64.5506 29.218 64.5986 29.356 64.5986 29.524C64.5986 29.68 64.5566 29.824 64.4726 29.956C64.3886 30.076 64.2326 30.214 64.0046 30.37C63.6686 30.598 63.2606 30.784 62.7806 30.928C62.3126 31.06 61.8386 31.126 61.3586 31.126ZM73.1399 28.966C73.2719 28.966 73.3859 29.02 73.4819 29.128C73.5779 29.236 73.6259 29.374 73.6259 29.542C73.6259 29.842 73.4159 30.118 72.9959 30.37C72.5639 30.622 72.1079 30.814 71.6279 30.946C71.1479 31.066 70.6799 31.126 70.2239 31.126C68.8679 31.126 67.7939 30.724 67.0019 29.92C66.2219 29.116 65.8319 28.006 65.8319 26.59C65.8319 25.69 66.0059 24.898 66.3539 24.214C66.7019 23.518 67.1879 22.978 67.8119 22.594C68.4479 22.21 69.1679 22.018 69.9719 22.018C71.1119 22.018 72.0179 22.39 72.6899 23.134C73.3619 23.878 73.6979 24.886 73.6979 26.158C73.6979 26.398 73.6499 26.572 73.5539 26.68C73.4579 26.788 73.3019 26.842 73.0859 26.842H67.2899C67.3979 28.906 68.3759 29.938 70.2239 29.938C70.6919 29.938 71.0939 29.878 71.4299 29.758C71.7659 29.626 72.1259 29.452 72.5099 29.236C72.8219 29.056 73.0319 28.966 73.1399 28.966ZM69.9899 23.152C69.2219 23.152 68.6039 23.392 68.1359 23.872C67.6799 24.352 67.4099 25.03 67.3259 25.906H72.4199C72.3959 25.018 72.1739 24.34 71.7539 23.872C71.3339 23.392 70.7459 23.152 69.9899 23.152ZM84.5367 29.938C84.9567 29.974 85.1667 30.166 85.1667 30.514C85.1667 30.718 85.0887 30.874 84.9327 30.982C84.7887 31.078 84.5667 31.114 84.2667 31.09L83.7807 31.054C82.8207 30.982 82.1127 30.694 81.6567 30.19C81.2007 29.686 80.9727 28.924 80.9727 27.904V23.386H79.7667C79.5627 23.386 79.4007 23.338 79.2807 23.242C79.1727 23.134 79.1187 22.996 79.1187 22.828C79.1187 22.648 79.1727 22.504 79.2807 22.396C79.4007 22.288 79.5627 22.234 79.7667 22.234H80.9727V20.2C80.9727 19.972 81.0387 19.798 81.1707 19.678C81.3027 19.546 81.4827 19.48 81.7107 19.48C81.9267 19.48 82.1007 19.546 82.2327 19.678C82.3647 19.798 82.4307 19.972 82.4307 20.2V22.234H84.4287C84.6207 22.234 84.7707 22.288 84.8787 22.396C84.9987 22.504 85.0587 22.648 85.0587 22.828C85.0587 22.996 84.9987 23.134 84.8787 23.242C84.7707 23.338 84.6207 23.386 84.4287 23.386H82.4307V27.976C82.4307 28.636 82.5627 29.116 82.8267 29.416C83.1027 29.704 83.5107 29.866 84.0507 29.902L84.5367 29.938ZM90.2399 31.126C89.4119 31.126 88.6799 30.94 88.0439 30.568C87.4199 30.196 86.9339 29.668 86.5859 28.984C86.2499 28.288 86.0819 27.484 86.0819 26.572C86.0819 25.66 86.2499 24.862 86.5859 24.178C86.9339 23.482 87.4199 22.948 88.0439 22.576C88.6799 22.204 89.4119 22.018 90.2399 22.018C91.0679 22.018 91.7999 22.204 92.4359 22.576C93.0719 22.948 93.5579 23.482 93.8939 24.178C94.2419 24.862 94.4159 25.66 94.4159 26.572C94.4159 27.484 94.2419 28.288 93.8939 28.984C93.5579 29.668 93.0719 30.196 92.4359 30.568C91.7999 30.94 91.0679 31.126 90.2399 31.126ZM90.2399 29.92C91.1039 29.92 91.7639 29.638 92.2199 29.074C92.6879 28.498 92.9219 27.664 92.9219 26.572C92.9219 25.504 92.6879 24.682 92.2199 24.106C91.7519 23.518 91.0919 23.224 90.2399 23.224C89.3879 23.224 88.7279 23.518 88.2599 24.106C87.7919 24.682 87.5579 25.504 87.5579 26.572C87.5579 27.652 87.7859 28.48 88.2419 29.056C88.7099 29.632 89.3759 29.92 90.2399 29.92ZM101.967 31.09C101.751 31.09 101.571 31.03 101.427 30.91C101.295 30.778 101.229 30.598 101.229 30.37V18.94C101.229 18.712 101.295 18.538 101.427 18.418C101.571 18.286 101.751 18.22 101.967 18.22C102.171 18.22 102.339 18.286 102.471 18.418C102.615 18.538 102.687 18.712 102.687 18.94V30.37C102.687 30.598 102.615 30.778 102.471 30.91C102.339 31.03 102.171 31.09 101.967 31.09ZM112.199 28.966C112.331 28.966 112.445 29.02 112.541 29.128C112.637 29.236 112.685 29.374 112.685 29.542C112.685 29.842 112.475 30.118 112.055 30.37C111.623 30.622 111.167 30.814 110.687 30.946C110.207 31.066 109.739 31.126 109.283 31.126C107.927 31.126 106.853 30.724 106.061 29.92C105.281 29.116 104.891 28.006 104.891 26.59C104.891 25.69 105.065 24.898 105.413 24.214C105.761 23.518 106.247 22.978 106.871 22.594C107.507 22.21 108.227 22.018 109.031 22.018C110.171 22.018 111.077 22.39 111.749 23.134C112.421 23.878 112.757 24.886 112.757 26.158C112.757 26.398 112.709 26.572 112.613 26.68C112.517 26.788 112.361 26.842 112.145 26.842H106.349C106.457 28.906 107.435 29.938 109.283 29.938C109.751 29.938 110.153 29.878 110.489 29.758C110.825 29.626 111.185 29.452 111.569 29.236C111.881 29.056 112.091 28.966 112.199 28.966ZM109.049 23.152C108.281 23.152 107.663 23.392 107.195 23.872C106.739 24.352 106.469 25.03 106.385 25.906H111.479C111.455 25.018 111.233 24.34 110.813 23.872C110.393 23.392 109.805 23.152 109.049 23.152ZM118.487 22.018C120.683 22.018 121.781 23.17 121.781 25.474V30.37C121.781 30.586 121.715 30.76 121.583 30.892C121.463 31.024 121.295 31.09 121.079 31.09C120.863 31.09 120.689 31.024 120.557 30.892C120.425 30.76 120.359 30.586 120.359 30.37V29.506C120.131 30.022 119.783 30.424 119.315 30.712C118.847 30.988 118.307 31.126 117.695 31.126C117.131 31.126 116.609 31.012 116.129 30.784C115.661 30.556 115.289 30.238 115.013 29.83C114.737 29.422 114.599 28.972 114.599 28.48C114.599 27.82 114.767 27.31 115.103 26.95C115.439 26.578 115.991 26.314 116.759 26.158C117.527 25.99 118.595 25.906 119.963 25.906H120.359V25.312C120.359 24.592 120.209 24.064 119.909 23.728C119.621 23.392 119.147 23.224 118.487 23.224C117.671 23.224 116.843 23.446 116.003 23.89C115.679 24.094 115.451 24.196 115.319 24.196C115.175 24.196 115.055 24.142 114.959 24.034C114.863 23.926 114.815 23.788 114.815 23.62C114.815 23.452 114.863 23.308 114.959 23.188C115.067 23.056 115.235 22.924 115.463 22.792C115.883 22.552 116.357 22.366 116.885 22.234C117.425 22.09 117.959 22.018 118.487 22.018ZM117.893 29.974C118.613 29.974 119.201 29.734 119.657 29.254C120.125 28.762 120.359 28.132 120.359 27.364V26.842H120.035C118.979 26.842 118.175 26.89 117.623 26.986C117.071 27.07 116.675 27.22 116.435 27.436C116.207 27.64 116.093 27.946 116.093 28.354C116.093 28.822 116.261 29.212 116.597 29.524C116.945 29.824 117.377 29.974 117.893 29.974ZM128.788 22.054C129.292 22.018 129.544 22.222 129.544 22.666C129.544 22.858 129.49 23.014 129.382 23.134C129.274 23.242 129.088 23.308 128.824 23.332L128.284 23.386C127.48 23.458 126.88 23.746 126.484 24.25C126.1 24.742 125.908 25.324 125.908 25.996V30.37C125.908 30.61 125.842 30.79 125.71 30.91C125.578 31.03 125.404 31.09 125.188 31.09C124.972 31.09 124.792 31.03 124.648 30.91C124.516 30.778 124.45 30.598 124.45 30.37V22.774C124.45 22.546 124.522 22.372 124.666 22.252C124.81 22.12 124.984 22.054 125.188 22.054C125.38 22.054 125.542 22.12 125.674 22.252C125.806 22.372 125.872 22.54 125.872 22.756V23.764C126.124 23.236 126.478 22.834 126.934 22.558C127.402 22.282 127.936 22.12 128.536 22.072L128.788 22.054ZM135.205 22.018C137.305 22.018 138.355 23.176 138.355 25.492V30.37C138.355 30.598 138.289 30.778 138.157 30.91C138.037 31.03 137.863 31.09 137.635 31.09C137.407 31.09 137.227 31.03 137.095 30.91C136.963 30.778 136.897 30.598 136.897 30.37V25.582C136.897 24.766 136.735 24.172 136.411 23.8C136.099 23.428 135.595 23.242 134.899 23.242C134.095 23.242 133.453 23.488 132.973 23.98C132.493 24.472 132.253 25.138 132.253 25.978V30.37C132.253 30.598 132.187 30.778 132.055 30.91C131.935 31.03 131.761 31.09 131.533 31.09C131.305 31.09 131.125 31.03 130.993 30.91C130.861 30.778 130.795 30.598 130.795 30.37V22.774C130.795 22.558 130.861 22.384 130.993 22.252C131.125 22.12 131.305 22.054 131.533 22.054C131.749 22.054 131.917 22.12 132.037 22.252C132.169 22.384 132.235 22.552 132.235 22.756V23.674C132.523 23.134 132.925 22.726 133.441 22.45C133.957 22.162 134.545 22.018 135.205 22.018Z" fill="black"/>
<path d="M143 13V38" stroke="black"/>
</svg>
