<svg width="308" height="282" viewBox="0 0 308 282" fill="none" xmlns="http://www.w3.org/2000/svg">
<path d="M201.198 151.459C205.716 151.32 233.791 152.143 242.637 144.344C246.056 141.331 250.508 128.447 248.846 123.551C249.76 123.111 241.158 121.168 241.619 120.723C235.758 120.399 233.216 115.994 231.366 112.209L228.799 96.4731L204.115 108.879L206.98 118.925C204.898 122.602 198.708 124.704 193.378 126.83L201.198 151.459Z" fill="#B07E9F"/>
<path d="M111.189 137.628C106.404 133.358 102.507 129.956 99.4355 127.345C92.3453 123.741 87.5786 122.061 85.0651 122.229C83.527 123.992 83.6865 127.207 88.268 129.632L95.2714 131.786L99.2996 136.442C96.5493 135.191 92.9127 136.034 88.3242 138.9C87.4473 141.422 86.0217 140.911 86.2632 144.607L82.683 150.535C88.6454 159.707 90.1719 161.001 92.9128 157.615L98.8774 165.615L121.438 172.976L119.468 160.532C120.744 156.689 119.902 146.575 119.271 139.264C116.622 133.232 107.858 140.492 102.995 137.422C98.8283 142.83 110.42 145.317 111.377 142.418C113.424 141.661 112.945 140.515 111.189 137.628Z" fill="#CDB3C4"/>
<path d="M158.854 168.997L165.332 203.693L147.128 216.931L129.337 176.831L158.854 168.997Z" fill="#B07E9F"/>
<path d="M196.049 124.097C177.449 128.941 167.986 132.576 167.592 134.931L149.529 164.462L141.775 169.768L156.479 211.574L175.02 197.942C178.523 221.864 178.574 228.592 177.344 233.478L174.659 250.053C199.454 267.183 232.623 266.307 274.098 247.346L262.581 204.012L261.052 215.848C280.142 216.917 287.587 213.765 303.16 207.347L291.331 158.873C285.324 139.957 283.094 135.003 279.301 132.604L246.663 120.922L244.279 131.784C241.477 141.152 226.443 149.172 218.192 149.563C208.947 148.982 198.837 143.025 197.067 132.458L196.049 124.097Z" fill="#464646"/>
<path d="M176.228 253.139L178.924 229.663C182.692 229.658 206.752 235.31 210.218 234.821C218.83 233.607 233.47 227.746 240.185 223.5C244.21 219.614 248.74 214.766 256.37 189.248L261.202 214.583L272.224 215.748L274.496 231.828L202.08 255.082L176.228 253.139Z" fill="#2E2E2E"/>
<path d="M167.737 99.2195C173.189 100.773 179.803 100.696 185.59 99.8429L188.973 96.5574L175.93 75.0825L170.446 67.1688L164.91 88.3555L167.737 99.2195Z" fill="#80618D"/>
<path d="M168.825 44.0606C169.14 62.1938 172.15 76.2848 179.081 93.7126C180.148 96.124 194.115 112.797 208.049 112.598C214.319 109.856 221.893 104.606 230.771 96.8458C233.561 93.6385 235.509 91.2153 236.614 89.5765C239.826 84.8171 242.154 73.3508 241.427 49.8043C234.452 28.0903 225.233 16.521 209.543 10.2781C197.522 11.9279 186.694 13.8753 181.16 20.8024C177.976 22.5224 173.848 32.9013 168.825 44.0606Z" fill="#CDB3C4"/>
<path d="M192.103 40.2151C184.368 66.6487 176.241 62.5055 173.505 72.8493C172.762 81.2504 173.864 84.6718 168.624 91.0599C169.357 94.9405 179.674 98.3362 182.413 95.2358C180.9 99.7984 171.904 103.407 171.911 103.03C164.989 102.13 160.277 103.464 155.578 99.8242L144.612 89.6633C140.612 81.0091 150.682 81.3582 152.37 71.9987L156.11 55.1449C159.271 40.7799 170.042 23.434 176.945 15.4805C180.511 13.4792 184.26 12.6755 188.124 12.9988C195.805 7.63714 204.171 4.84849 213.158 4.56494C229.453 7.1005 234.804 11.3444 248.098 23.0637L259.125 42.3546C267.905 51.2455 273.95 56.8533 276.63 64.2514C273.926 69.51 268.194 75.1295 261.504 79.6944C257.12 87.0129 252.032 92.7635 242.086 96.1404C234.372 100.276 231.378 96.7661 216.471 89.0422C226.15 91.3059 229.437 90.1155 232.949 85.6372C237.948 79.0429 235.294 76.0434 227.008 67.1619C216.522 61.4322 207.7 56.9915 200.799 49.0028L192.103 40.2151Z" fill="#AC6373"/>
<path d="M194.108 95.0155L200.056 95.7513C203.252 96.4262 207.362 95.7537 212.321 93.661L216.103 92.4214C214.297 95.756 210.825 98.8611 205.618 101.664C202.492 101.554 200.851 100.904 199.374 99.6297L194.108 95.0155Z" fill="white"/>
<path d="M127.653 248.748L225.54 252.877C233.997 253.235 234.499 256.115 226.658 259.305L184.94 276.283C177.099 279.474 163.866 281.775 155.409 281.417L57.5223 277.288C49.0628 276.929 48.5634 274.049 56.4039 270.86L98.1223 253.882C105.963 250.69 119.194 248.389 127.653 248.748Z" fill="#8B8B8B"/>
<path d="M6.00597 160.675L145.777 166.567C149.695 166.733 153.536 169.981 154.347 173.817L175.829 275.345C176.64 279.179 174.117 282.16 170.199 281.993L30.4278 276.102C26.5099 275.936 22.6693 272.688 21.8581 268.854L0.376467 167.326C-0.434781 163.49 2.08806 160.511 6.00597 160.675Z" fill="#B9B9B9"/>
<path d="M73.0909 211.504C76.4742 211.736 79.9208 214.55 80.7485 217.758L81.2479 219.701L85.3511 219.982L84.8493 218.04C84.0217 214.831 86.1154 212.397 89.4987 212.629C92.882 212.861 96.3287 215.675 97.154 218.883C97.9817 222.089 95.8903 224.524 92.5046 224.292L90.4554 224.151L91.4565 228.039L93.5081 228.179C96.8914 228.411 100.338 231.223 101.163 234.432C101.991 237.637 99.8996 240.072 96.5163 239.84C93.1307 239.608 89.6864 236.794 88.8587 233.588L88.3569 231.643L84.2562 231.362L84.7579 233.307C85.5832 236.513 83.4917 238.947 80.1084 238.715C76.725 238.483 73.2784 235.669 72.4508 232.463C71.6255 229.255 73.717 226.823 77.1003 227.055L79.1519 227.195L78.1483 223.308L76.0991 223.167C72.7158 222.935 69.2692 220.121 68.4415 216.915C67.6162 213.707 69.7076 211.272 73.0909 211.504ZM74.0945 215.391C72.9667 215.314 72.268 216.125 72.5447 217.196C72.819 218.265 73.9677 219.202 75.0955 219.279L77.1471 219.42L76.6454 217.477C76.371 216.406 75.2223 215.469 74.0945 215.391ZM90.4999 216.516C89.3721 216.439 88.6758 217.25 88.9502 218.321L89.4519 220.263L91.5035 220.404C92.6312 220.481 93.3276 219.671 93.0533 218.602C92.7766 217.531 91.6276 216.594 90.4999 216.516ZM82.2514 223.589L83.2526 227.476L87.3557 227.758L86.3522 223.87L82.2514 223.589ZM78.1037 230.94C76.976 230.863 76.2772 231.676 76.5539 232.744C76.8282 233.813 77.9771 234.75 79.1049 234.828C80.2327 234.905 80.9314 234.094 80.6548 233.026L80.1553 231.081L78.1037 230.94ZM92.46 231.924L92.9619 233.869C93.2362 234.938 94.3849 235.875 95.5127 235.953C96.6405 236.03 97.3392 235.219 97.0626 234.15C96.7859 233.082 95.6394 232.142 94.5093 232.065L92.46 231.924Z" fill="white"/>
<path d="M272.009 216.366L275.967 228.974C253.88 235.599 238.867 239.632 230.853 240.998L211.688 227.261L193.482 238.055L190.607 250.812L195.397 252.284L198.274 242.47L205.461 239.037L198.274 246.395L194.441 251.792L198.753 257.189L204.502 258.17L210.731 263.567L223.667 260.132L264.872 257.189C292.02 252.574 306.152 249.497 307.193 247.89C308.257 243.601 307.232 232.747 307.232 232.747C306.775 232.519 303.802 219.141 300.808 209.599L272.009 216.366Z" fill="#CDB3C4"/>
<path d="M282.724 226.27L275.186 229.407L270.729 214.295C274.497 214.283 279.587 213.948 285.249 212.568C289.995 211.412 301.153 207.04 301.498 206.866L307.537 238.198C306.75 232.252 303.108 227.357 299.685 224.7C294.501 223.83 291.383 223.226 287.123 224.071L282.724 226.27Z" fill="#B07E9F"/>
<path d="M64.3137 103.918C96.5654 103.918 122.71 81.361 122.71 53.5352C122.71 25.7093 96.5654 3.15204 64.3137 3.15204C32.062 3.15204 5.91675 25.7093 5.91675 53.5352C5.91675 81.361 32.062 103.918 64.3137 103.918Z" fill="white"/>
<path d="M78.5422 101.181L89.2408 110.391L104.101 113.955L99.6441 101.181L98.7531 90.7833L78.5422 101.181Z" fill="white"/>
<path d="M64.369 0.00228848C98.0123 0.00228848 125.684 23.6777 125.684 53.2678C125.684 70.4356 116.16 85.5786 101.792 95.2616C101.815 95.8357 101.792 96.7239 102.544 99.5172C103.473 102.974 105.311 107.869 109.145 113.296L111.9 117.135L107.14 117.222C90.629 117.292 81.0652 106.449 79.5717 104.696C74.6972 105.781 69.6233 106.533 64.369 106.533C30.7374 106.533 3.0564 82.8533 3.0564 53.2678C3.0564 23.6824 30.7397 0 64.369 0V0.00228848ZM64.369 5.01248C33.0562 5.01248 8.06696 26.7921 8.06696 53.2678C8.06696 79.7436 33.0562 101.526 64.369 101.526C69.5764 101.528 74.7628 100.912 79.8226 99.6859L81.3278 99.3532L82.3314 100.605C82.3314 100.605 90.0546 109.31 102.378 111.375C100.155 107.389 98.4625 103.684 97.7005 100.853C96.6337 96.8997 96.6149 94.1743 96.6149 94.1743V92.8385L97.7825 92.091C111.754 83.2376 120.673 69.1397 120.673 53.2678C120.673 26.7921 95.6958 5.0102 64.369 5.0102V5.01248Z" fill="#89CDD8"/>
<path d="M58.2579 78.0962V75.8207C58.2579 73.4398 56.8043 71.1433 55.1232 68.4882C53.0927 65.2824 50.7949 61.6501 50.7949 57.1719C50.7949 49.291 57.2122 42.8772 65.0972 42.8772C72.9823 42.8772 79.4019 49.291 79.4019 57.1719C79.4019 61.6501 77.1018 65.2824 75.0737 68.4882C73.3902 71.1433 71.939 73.4398 71.939 75.8207V78.0962H58.2579Z" fill="#FFDD30"/>
<path d="M65.1004 43.4982C72.6455 43.4982 78.7839 49.6332 78.7839 57.1719C78.7839 61.4697 76.5329 65.0247 74.5517 68.1578C72.8893 70.7801 71.3208 73.2594 71.3208 75.8207V77.4751H58.8825V75.8207C58.8825 73.2594 57.3116 70.7801 55.6516 68.1578C53.6703 65.0247 51.4195 61.4697 51.4195 57.1719C51.4195 49.6332 57.5553 43.4982 65.1004 43.4982ZM65.1004 42.2562C56.8566 42.2562 50.1768 48.9325 50.1768 57.1719C50.1768 65.4629 57.6374 70.7941 57.6374 75.8207V78.7195H72.5635V75.8207C72.5635 70.7941 80.0265 65.4629 80.0265 57.1719C80.0265 48.9325 73.3465 42.2562 65.1004 42.2562Z" fill="#E87F39"/>
<path d="M68.4791 55.1051C69.4239 55.1027 70.2774 55.6722 70.6385 56.5463C71.0019 57.418 70.8002 58.4233 70.1296 59.0912L67.5881 61.6315V77.0628H62.6127V61.6315L60.0734 59.0912C59.4029 58.4233 59.2012 57.418 59.5623 56.5463C59.9257 55.6722 60.7793 55.1027 61.7242 55.1051C62.3502 55.1051 62.9386 55.3464 63.377 55.7893L64.2211 56.633L65.1003 57.5094L65.9796 56.6306L66.826 55.7893C67.2621 55.3488 67.8577 55.1027 68.4791 55.1051ZM68.4791 53.8607C67.5271 53.8584 66.6174 54.238 65.9468 54.9106L65.1003 55.7495L64.2563 54.9106C63.5857 54.238 62.6737 53.8607 61.7242 53.8607C60.8074 53.8607 59.8929 54.2099 59.1942 54.9106C58.5213 55.5808 58.1438 56.4924 58.1438 57.4415C58.1438 58.3882 58.5213 59.2998 59.1942 59.97L61.3701 62.1447V78.3071H68.8331V62.1447L71.0089 59.97C71.6818 59.2998 72.0593 58.3882 72.0593 57.4415C72.0593 56.4924 71.6818 55.5808 71.0089 54.9106C70.3383 54.238 69.4286 53.8607 68.4791 53.8607Z" fill="white"/>
<path d="M69.4546 85.1427C69.4546 87.547 67.5061 89.4944 65.1005 89.4944C62.6972 89.4944 60.7489 87.547 60.7489 85.1427C60.7489 82.7407 62.6972 80.791 65.1005 80.791C67.5061 80.791 69.4546 82.7407 69.4546 85.1427Z" fill="#E87F39"/>
<path d="M61.3702 86.3871C59.6539 86.3848 58.2611 84.9952 58.2611 83.2775V76.4418H71.9422V83.2775C71.9422 84.9928 70.5471 86.3871 68.8332 86.3871H61.3702Z" fill="#C4C4C4"/>
<path d="M71.3208 77.0627V83.2775C71.3208 84.6484 70.2025 85.7638 68.8332 85.7638H61.3702C59.9986 85.7638 58.8825 84.6484 58.8825 83.2775V77.0627H71.3208ZM72.5635 75.8207H57.6375V83.2775C57.6375 85.3373 59.3093 87.0082 61.3702 87.0082H68.8332C70.8941 87.0082 72.5635 85.3373 72.5635 83.2775V75.8207Z" fill="#7D3A49"/>
<path d="M71.9422 79.5491H64.4792C64.1369 79.5468 63.8602 79.2703 63.8578 78.9282C63.8578 78.5884 64.1392 78.3071 64.4792 78.3071H71.9422C72.2821 78.3071 72.5635 78.5884 72.5635 78.9282C72.5635 79.268 72.2821 79.5491 71.9422 79.5491ZM71.9422 82.0355H64.4792C64.1369 82.0331 63.8602 81.7566 63.8578 81.4145C63.8578 81.0747 64.1392 80.7911 64.4792 80.7911H71.9422C72.2821 80.7911 72.5635 81.0747 72.5635 81.4145C72.5635 81.7542 72.2821 82.0355 71.9422 82.0355ZM71.3045 84.5219H64.4792C64.1369 84.5195 63.8602 84.243 63.8578 83.9008C63.8578 83.561 64.1392 83.2775 64.4792 83.2775H71.3045C71.6468 83.2775 71.9281 83.561 71.9281 83.9008C71.9281 84.2383 71.6468 84.5219 71.3045 84.5219ZM58.2611 79.5491H60.7489C61.0865 79.5491 61.3702 79.268 61.3702 78.9282C61.3702 78.5884 61.0865 78.3071 60.7489 78.3071H58.2611C57.9211 78.3071 57.6375 78.5884 57.6375 78.9282C57.6375 79.268 57.9211 79.5491 58.2611 79.5491ZM58.2611 82.0355H60.7489C61.0865 82.0355 61.3702 81.7542 61.3702 81.4145C61.3702 81.0747 61.0865 80.7911 60.7489 80.7911H58.2611C57.9211 80.7911 57.6375 81.0747 57.6375 81.4145C57.6375 81.7542 57.9211 82.0355 58.2611 82.0355ZM58.7653 84.5219H60.7489C61.0865 84.5219 61.3702 84.2383 61.3702 83.9008C61.3702 83.561 61.0865 83.2775 60.7489 83.2775H58.7653C58.4253 83.2775 58.1439 83.561 58.1439 83.9008C58.1439 84.2383 58.4253 84.5219 58.7653 84.5219Z" fill="#7D3A49"/>
<path d="M34.7327 26.5203L48.1722 39.641" stroke="#FFDD30" stroke-miterlimit="3" stroke-linecap="square"/>
<path d="M64.9692 16.1319L65.234 35.8962" stroke="#FFDD30" stroke-miterlimit="3" stroke-linecap="square"/>
<path d="M98.5165 28.8823L82.9247 41.6328" stroke="#FFDD30" stroke-miterlimit="3" stroke-linecap="square"/>
</svg>
