<svg width="1439" height="282" viewBox="0 0 1439 282" fill="none" xmlns="http://www.w3.org/2000/svg">
<path d="M0.0469971 160.561C69.3383 145.823 289.822 119.092 400.027 106.245C491.853 95.0788 578.675 86.9566 660.403 81.8034C767.649 73.332 920.394 91.1184 1118.54 135.09C1240.07 157.327 1414.63 212.882 1413.03 211.288C1421.58 214.002 1430.41 216.999 1438.85 219.996L1438.56 95.9834C1372.98 91.6176 1293.9 95.4795 1201.4 107.461C1137.23 118.436 1060.9 142.141 972.328 178.511C892.122 214.813 784.116 224.046 648.218 206.142C578.5 193.752 496.486 172.725 402.088 142.985C321.517 112.814 189.886 84.5851 107.966 68.6827C76.7919 62.9836 40.8532 57.8961 0.0469971 53.3616V160.561Z" fill="#E5F9FB"/>
<g style="mix-blend-mode:multiply">
<path d="M0.154697 135.092C97.0308 145.905 306.286 141.67 384.109 138.209C494.692 136.911 535.632 144.548 652.614 132.529C617.955 132.435 701.917 140.658 863.1 110.784C993.235 74.0772 1150.05 46.4625 1203.14 42.2819C1201.92 42.1671 1370.52 22.5316 1438.35 41.9092L1438.69 125.072C1343.9 104.759 1196.49 94.8467 1007.17 89.9701C875.641 86.6143 628.529 83.0899 502.385 127.279C390.803 166.135 284.035 196.717 182.174 219.096C112.538 230.024 51.8683 234.251 0.300093 231.765L0 135.076C0.0515822 135.083 0.100771 135.088 0.154697 135.092Z" fill="#89CDD8" fill-opacity="0.38"/>
</g>
<path d="M768.198 151.459C772.716 151.32 800.791 152.143 809.637 144.344C813.056 141.331 817.508 128.447 815.846 123.551C816.76 123.111 808.158 121.168 808.619 120.723C802.758 120.399 800.216 115.994 798.366 112.209L795.799 96.4731L771.115 108.879L773.98 118.925C771.898 122.602 765.708 124.704 760.378 126.83L768.198 151.459Z" fill="#B07E9F"/>
<path d="M678.189 137.628C673.404 133.358 669.507 129.956 666.436 127.345C659.345 123.741 654.579 122.061 652.065 122.229C650.527 123.992 650.687 127.207 655.268 129.632L662.271 131.786L666.3 136.442C663.549 135.191 659.913 136.034 655.324 138.9C654.447 141.422 653.022 140.911 653.263 144.607L649.683 150.535C655.645 159.707 657.172 161.001 659.913 157.615L665.877 165.615L688.438 172.976L686.468 160.532C687.744 156.689 686.902 146.575 686.271 139.264C683.622 133.232 674.858 140.492 669.995 137.422C665.828 142.83 677.42 145.317 678.377 142.418C680.424 141.661 679.945 140.515 678.189 137.628Z" fill="#CDB3C4"/>
<path d="M725.854 168.997L732.332 203.693L714.128 216.931L696.337 176.831L725.854 168.997Z" fill="#B07E9F"/>
<path d="M763.049 124.097C744.449 128.941 734.986 132.576 734.592 134.931L716.529 164.462L708.775 169.768L723.479 211.574L742.02 197.942C745.523 221.864 745.574 228.592 744.344 233.478L741.659 250.053C766.454 267.183 799.623 266.307 841.098 247.346L829.581 204.012L828.052 215.848C847.142 216.917 854.587 213.765 870.16 207.347L858.331 158.873C852.324 139.957 850.094 135.003 846.301 132.604L813.663 120.922L811.279 131.784C808.477 141.152 793.443 149.172 785.192 149.563C775.947 148.982 765.837 143.025 764.067 132.458L763.049 124.097Z" fill="#464646"/>
<path d="M743.228 253.139L745.924 229.663C749.692 229.658 773.752 235.31 777.218 234.821C785.83 233.607 800.47 227.746 807.185 223.5C811.21 219.614 815.74 214.766 823.37 189.248L828.202 214.583L839.224 215.748L841.496 231.828L769.08 255.082L743.228 253.139Z" fill="#2E2E2E"/>
<path d="M734.737 99.2195C740.189 100.773 746.803 100.696 752.59 99.8429L755.973 96.5574L742.93 75.0825L737.446 67.1688L731.91 88.3555L734.737 99.2195Z" fill="#80618D"/>
<path d="M735.825 44.0606C736.14 62.1938 739.15 76.2848 746.081 93.7126C747.148 96.124 761.115 112.797 775.049 112.598C781.319 109.856 788.893 104.606 797.771 96.8458C800.561 93.6385 802.509 91.2153 803.614 89.5765C806.826 84.8171 809.154 73.3508 808.427 49.8043C801.452 28.0903 792.233 16.521 776.543 10.2781C764.522 11.9279 753.694 13.8753 748.16 20.8024C744.976 22.5224 740.848 32.9013 735.825 44.0606Z" fill="#CDB3C4"/>
<path d="M759.103 40.2151C751.368 66.6487 743.241 62.5055 740.505 72.8493C739.762 81.2504 740.864 84.6718 735.624 91.0599C736.357 94.9405 746.674 98.3362 749.413 95.2358C747.9 99.7984 738.904 103.407 738.911 103.03C731.989 102.13 727.277 103.464 722.578 99.8242L711.612 89.6633C707.612 81.0091 717.682 81.3582 719.37 71.9987L723.11 55.1449C726.271 40.7799 737.042 23.434 743.945 15.4805C747.511 13.4792 751.26 12.6755 755.124 12.9988C762.805 7.63714 771.171 4.84849 780.158 4.56494C796.453 7.1005 801.804 11.3444 815.098 23.0637L826.125 42.3546C834.905 51.2455 840.95 56.8533 843.63 64.2514C840.926 69.51 835.194 75.1295 828.504 79.6944C824.12 87.0129 819.032 92.7635 809.086 96.1404C801.372 100.276 798.378 96.7661 783.471 89.0422C793.15 91.3059 796.437 90.1155 799.949 85.6372C804.948 79.0429 802.294 76.0434 794.008 67.1619C783.522 61.4322 774.7 56.9915 767.799 49.0028L759.103 40.2151Z" fill="#AC6373"/>
<path d="M761.108 95.0155L767.056 95.7513C770.252 96.4262 774.362 95.7537 779.321 93.661L783.103 92.4214C781.297 95.756 777.825 98.8611 772.618 101.664C769.492 101.554 767.851 100.904 766.374 99.6297L761.108 95.0155Z" fill="white"/>
<path d="M694.653 248.748L792.54 252.877C800.997 253.235 801.499 256.115 793.658 259.305L751.94 276.283C744.099 279.474 730.866 281.775 722.409 281.417L624.522 277.288C616.063 276.929 615.563 274.049 623.404 270.86L665.122 253.882C672.963 250.69 686.194 248.389 694.653 248.748Z" fill="#8B8B8B"/>
<path d="M573.006 160.675L712.777 166.567C716.695 166.733 720.536 169.981 721.347 173.817L742.829 275.345C743.64 279.179 741.117 282.16 737.199 281.993L597.428 276.102C593.51 275.936 589.669 272.688 588.858 268.854L567.376 167.326C566.565 163.49 569.088 160.511 573.006 160.675Z" fill="#B9B9B9"/>
<path d="M640.091 211.504C643.474 211.736 646.921 214.55 647.748 217.758L648.248 219.701L652.351 219.982L651.849 218.04C651.022 214.831 653.115 212.397 656.499 212.629C659.882 212.861 663.329 215.675 664.154 218.883C664.982 222.089 662.89 224.524 659.505 224.292L657.455 224.151L658.457 228.039L660.508 228.179C663.891 228.411 667.338 231.223 668.163 234.432C668.991 237.637 666.9 240.072 663.516 239.84C660.131 239.608 656.686 236.794 655.859 233.588L655.357 231.643L651.256 231.362L651.758 233.307C652.583 236.513 650.492 238.947 647.108 238.715C643.725 238.483 640.278 235.669 639.451 232.463C638.625 229.255 640.717 226.823 644.1 227.055L646.152 227.195L645.148 223.308L643.099 223.167C639.716 222.935 636.269 220.121 635.442 216.915C634.616 213.707 636.708 211.272 640.091 211.504ZM641.094 215.391C639.967 215.314 639.268 216.125 639.545 217.196C639.819 218.265 640.968 219.202 642.096 219.279L644.147 219.42L643.645 217.477C643.371 216.406 642.222 215.469 641.094 215.391ZM657.5 216.516C656.372 216.439 655.676 217.25 655.95 218.321L656.452 220.263L658.503 220.404C659.631 220.481 660.328 219.671 660.053 218.602C659.777 217.531 658.628 216.594 657.5 216.516ZM649.251 223.589L650.253 227.476L654.356 227.758L653.352 223.87L649.251 223.589ZM645.104 230.94C643.976 230.863 643.277 231.676 643.554 232.744C643.828 233.813 644.977 234.75 646.105 234.828C647.233 234.905 647.931 234.094 647.655 233.026L647.155 231.081L645.104 230.94ZM659.46 231.924L659.962 233.869C660.236 234.938 661.385 235.875 662.513 235.953C663.64 236.03 664.339 235.219 664.063 234.15C663.786 233.082 662.639 232.142 661.509 232.065L659.46 231.924Z" fill="white"/>
<path d="M839.009 216.366L842.967 228.974C820.88 235.599 805.867 239.632 797.853 240.998L778.688 227.261L760.482 238.055L757.607 250.812L762.397 252.284L765.274 242.47L772.461 239.037L765.274 246.395L761.441 251.792L765.753 257.189L771.502 258.17L777.731 263.567L790.667 260.132L831.872 257.189C859.02 252.574 873.152 249.497 874.193 247.89C875.257 243.601 874.232 232.747 874.232 232.747C873.775 232.519 870.802 219.141 867.808 209.599L839.009 216.366Z" fill="#CDB3C4"/>
<path d="M849.724 226.27L842.186 229.407L837.729 214.295C841.497 214.283 846.587 213.948 852.249 212.568C856.995 211.412 868.153 207.04 868.498 206.866L874.537 238.198C873.75 232.252 870.108 227.357 866.685 224.7C861.501 223.83 858.383 223.226 854.123 224.071L849.724 226.27Z" fill="#B07E9F"/>
<path d="M631.314 103.918C663.565 103.918 689.71 81.361 689.71 53.5352C689.71 25.7093 663.565 3.15204 631.314 3.15204C599.062 3.15204 572.917 25.7093 572.917 53.5352C572.917 81.361 599.062 103.918 631.314 103.918Z" fill="white"/>
<path d="M645.542 101.181L656.241 110.391L671.101 113.955L666.644 101.181L665.753 90.7833L645.542 101.181Z" fill="white"/>
<path d="M631.369 0.00228848C665.012 0.00228848 692.684 23.6777 692.684 53.2678C692.684 70.4356 683.16 85.5786 668.792 95.2616C668.815 95.8357 668.792 96.7239 669.544 99.5172C670.473 102.974 672.311 107.869 676.145 113.296L678.9 117.135L674.14 117.222C657.629 117.292 648.065 106.449 646.572 104.696C641.697 105.781 636.623 106.533 631.369 106.533C597.737 106.533 570.056 82.8533 570.056 53.2678C570.056 23.6824 597.74 0 631.369 0V0.00228848ZM631.369 5.01248C600.056 5.01248 575.067 26.7921 575.067 53.2678C575.067 79.7436 600.056 101.526 631.369 101.526C636.576 101.528 641.763 100.912 646.823 99.6859L648.328 99.3532L649.331 100.605C649.331 100.605 657.055 109.31 669.378 111.375C667.155 107.389 665.463 103.684 664.701 100.853C663.634 96.8997 663.615 94.1743 663.615 94.1743V92.8385L664.783 92.091C678.754 83.2376 687.673 69.1397 687.673 53.2678C687.673 26.7921 662.696 5.0102 631.369 5.0102V5.01248Z" fill="#89CDD8"/>
<path d="M625.258 78.0962V75.8207C625.258 73.4398 623.804 71.1433 622.123 68.4882C620.093 65.2824 617.795 61.6501 617.795 57.1719C617.795 49.291 624.212 42.8772 632.097 42.8772C639.982 42.8772 646.402 49.291 646.402 57.1719C646.402 61.6501 644.102 65.2824 642.074 68.4882C640.39 71.1433 638.939 73.4398 638.939 75.8207V78.0962H625.258Z" fill="#FFDD30"/>
<path d="M632.1 43.4982C639.645 43.4982 645.784 49.6332 645.784 57.1719C645.784 61.4697 643.533 65.0247 641.552 68.1578C639.889 70.7801 638.321 73.2594 638.321 75.8207V77.4751H625.882V75.8207C625.882 73.2594 624.312 70.7801 622.652 68.1578C620.67 65.0247 618.419 61.4697 618.419 57.1719C618.419 49.6332 624.555 43.4982 632.1 43.4982ZM632.1 42.2562C623.857 42.2562 617.177 48.9325 617.177 57.1719C617.177 65.4629 624.637 70.7941 624.637 75.8207V78.7195H639.564V75.8207C639.564 70.7941 647.027 65.4629 647.027 57.1719C647.027 48.9325 640.347 42.2562 632.1 42.2562Z" fill="#E87F39"/>
<path d="M635.479 55.1051C636.424 55.1027 637.277 55.6722 637.639 56.5463C638.002 57.418 637.8 58.4233 637.13 59.0912L634.588 61.6315V77.0628H629.613V61.6315L627.073 59.0912C626.403 58.4233 626.201 57.418 626.562 56.5463C626.926 55.6722 627.779 55.1027 628.724 55.1051C629.35 55.1051 629.939 55.3464 630.377 55.7893L631.221 56.633L632.1 57.5094L632.98 56.6306L633.826 55.7893C634.262 55.3488 634.858 55.1027 635.479 55.1051ZM635.479 53.8607C634.527 53.8584 633.617 54.238 632.947 54.9106L632.1 55.7495L631.256 54.9106C630.586 54.238 629.674 53.8607 628.724 53.8607C627.807 53.8607 626.893 54.2099 626.194 54.9106C625.521 55.5808 625.144 56.4924 625.144 57.4415C625.144 58.3882 625.521 59.2998 626.194 59.97L628.37 62.1447V78.3071H635.833V62.1447L638.009 59.97C638.682 59.2998 639.059 58.3882 639.059 57.4415C639.059 56.4924 638.682 55.5808 638.009 54.9106C637.338 54.238 636.429 53.8607 635.479 53.8607Z" fill="white"/>
<path d="M636.455 85.1427C636.455 87.547 634.506 89.4944 632.1 89.4944C629.697 89.4944 627.749 87.547 627.749 85.1427C627.749 82.7407 629.697 80.791 632.1 80.791C634.506 80.791 636.455 82.7407 636.455 85.1427Z" fill="#E87F39"/>
<path d="M628.37 86.3871C626.654 86.3848 625.261 84.9952 625.261 83.2775V76.4418H638.942V83.2775C638.942 84.9928 637.547 86.3871 635.833 86.3871H628.37Z" fill="#C4C4C4"/>
<path d="M638.321 77.0627V83.2775C638.321 84.6484 637.202 85.7638 635.833 85.7638H628.37C626.999 85.7638 625.882 84.6484 625.882 83.2775V77.0627H638.321ZM639.564 75.8207H624.637V83.2775C624.637 85.3373 626.309 87.0082 628.37 87.0082H635.833C637.894 87.0082 639.564 85.3373 639.564 83.2775V75.8207Z" fill="#7D3A49"/>
<path d="M638.942 79.5491H631.479C631.137 79.5468 630.86 79.2703 630.858 78.9282C630.858 78.5884 631.139 78.3071 631.479 78.3071H638.942C639.282 78.3071 639.564 78.5884 639.564 78.9282C639.564 79.268 639.282 79.5491 638.942 79.5491ZM638.942 82.0355H631.479C631.137 82.0331 630.86 81.7566 630.858 81.4145C630.858 81.0747 631.139 80.7911 631.479 80.7911H638.942C639.282 80.7911 639.564 81.0747 639.564 81.4145C639.564 81.7542 639.282 82.0355 638.942 82.0355ZM638.304 84.5219H631.479C631.137 84.5195 630.86 84.243 630.858 83.9008C630.858 83.561 631.139 83.2775 631.479 83.2775H638.304C638.647 83.2775 638.928 83.561 638.928 83.9008C638.928 84.2383 638.647 84.5219 638.304 84.5219ZM625.261 79.5491H627.749C628.086 79.5491 628.37 79.268 628.37 78.9282C628.37 78.5884 628.086 78.3071 627.749 78.3071H625.261C624.921 78.3071 624.637 78.5884 624.637 78.9282C624.637 79.268 624.921 79.5491 625.261 79.5491ZM625.261 82.0355H627.749C628.086 82.0355 628.37 81.7542 628.37 81.4145C628.37 81.0747 628.086 80.7911 627.749 80.7911H625.261C624.921 80.7911 624.637 81.0747 624.637 81.4145C624.637 81.7542 624.921 82.0355 625.261 82.0355ZM625.765 84.5219H627.749C628.086 84.5219 628.37 84.2383 628.37 83.9008C628.37 83.561 628.086 83.2775 627.749 83.2775H625.765C625.425 83.2775 625.144 83.561 625.144 83.9008C625.144 84.2383 625.425 84.5219 625.765 84.5219Z" fill="#7D3A49"/>
<path d="M601.733 26.5203L615.172 39.641" stroke="#FFDD30" stroke-miterlimit="3" stroke-linecap="square"/>
<path d="M631.969 16.1319L632.234 35.8962" stroke="#FFDD30" stroke-miterlimit="3" stroke-linecap="square"/>
<path d="M665.516 28.8823L649.925 41.6328" stroke="#FFDD30" stroke-miterlimit="3" stroke-linecap="square"/>
</svg>
