<svg width="1439" height="200" viewBox="0 0 1439 200" fill="none" xmlns="http://www.w3.org/2000/svg">
<path d="M0.0469971 127.561C69.3383 112.823 289.822 86.0916 400.027 73.2451C491.853 62.0788 578.675 53.9566 660.403 48.8034C767.649 40.332 920.394 58.1184 1118.54 102.09C1240.07 124.327 1414.63 179.882 1413.03 178.288C1421.58 181.002 1430.41 183.999 1438.85 186.996L1438.56 62.9834C1372.98 58.6176 1293.9 62.4795 1201.4 74.4614C1137.23 85.4355 1060.9 109.141 972.328 145.511C892.122 181.813 784.116 191.046 648.218 173.142C578.5 160.752 496.486 139.725 402.088 109.985C321.517 79.8137 189.886 51.5851 107.966 35.6827C76.7919 29.9836 40.8532 24.8961 0.0469971 20.3616V127.561Z" fill="#E5F9FB"/>
<g style="mix-blend-mode:multiply">
<path d="M0.154697 102.092C97.0308 112.905 306.286 108.67 384.109 105.209C494.692 103.911 535.632 111.548 652.614 99.5286C617.955 99.4349 701.917 107.658 863.1 77.7842C993.235 41.0772 1150.05 13.4625 1203.14 9.28188C1201.92 9.16706 1370.52 -10.4684 1438.35 8.90922L1438.69 92.0719C1343.9 71.7593 1196.49 61.8467 1007.17 56.9701C875.641 53.6143 628.529 50.0899 502.385 94.2794C390.803 133.135 284.035 163.717 182.174 186.096C112.538 197.024 51.8683 201.251 0.300093 198.765L0 102.076C0.0515822 102.083 0.100771 102.088 0.154697 102.092Z" fill="#89CDD8" fill-opacity="0.38"/>
</g>
</svg>
